# Blender v2.79 (sub 0) OBJ File: ''
# www.blender.org
o Cube.001
v -0.286216 -0.712682 0.150000
v -0.400000 0.395365 0.150000
v -0.400000 0.395366 -0.150000
v -0.286216 -0.712682 -0.150000
v 0.400000 0.395366 -0.150000
v 0.286216 -0.712682 -0.150000
v 0.400000 0.395365 0.150000
v 0.286216 -0.712682 0.150000
v -0.203069 0.587317 0.150000
v -0.203069 0.587318 -0.150000
v 0.203068 0.587317 0.150000
v 0.000000 0.644928 0.150000
v 0.203068 0.587318 -0.150000
v 0.000000 0.644928 -0.150000
vt 0.819239 0.824484
vt 0.255013 0.824483
vt 0.255013 0.976447
vt 0.819239 0.976447
vt 0.761687 0.079559
vt 0.200413 0.021923
vt 0.200413 0.427158
vt 0.761687 0.369522
vt 0.829899 0.826593
vt 0.829899 0.262367
vt 0.981862 0.262367
vt 0.981862 0.826593
vt 0.098551 0.751912
vt 0.659826 0.809547
vt 0.659826 0.404313
vt 0.098551 0.461949
vt 0.115712 0.824483
vt 0.115712 0.976447
vt 0.757058 0.504066
vt 0.757058 0.709793
vt 0.786240 0.606930
vt 0.103181 0.121678
vt 0.103181 0.327405
vt 0.829899 0.123065
vt 0.981862 0.123065
vt 0.073999 0.224541
vt 0.829899 0.016142
vt 0.981862 0.016143
vt 0.008789 0.824483
vt 0.008789 0.976447
vn -0.6809 -0.0699 0.7290
vn -0.7368 0.2672 0.6210
vn -0.7368 0.2672 -0.6210
vn -0.6809 -0.0699 -0.7290
vn 0.7368 0.2672 -0.6210
vn 0.6809 -0.0699 -0.7290
vn 0.7368 0.2672 0.6210
vn 0.6809 -0.0699 0.7290
vn -0.3781 0.6535 0.6558
vn -0.3781 0.6535 -0.6558
vn 0.3781 0.6535 0.6558
vn 0.0000 0.7595 0.6505
vn 0.3781 0.6535 -0.6558
vn 0.0000 0.7595 -0.6505
s 1
f 1/1/1 2/2/2 3/3/3 4/4/4
f 4/5/4 3/6/3 5/7/5 6/8/6
f 6/9/6 5/10/5 7/11/7 8/12/8
f 8/13/8 7/14/7 2/15/2 1/16/1
f 3/3/3 2/2/2 9/17/9 10/18/10
f 9/19/9 11/20/11 12/21/12
f 2/15/2 7/14/7 11/20/11 9/19/9
f 5/7/5 3/6/3 10/22/10 13/23/13
f 7/11/7 5/10/5 13/24/13 11/25/11
f 13/23/13 10/22/10 14/26/14
f 11/25/11 13/24/13 14/27/14 12/28/12
f 10/18/10 9/17/9 12/29/12 14/30/14
