# Blender v2.79 (sub 0) OBJ File: 'CemeteryAssets.blend'
# www.blender.org
o Cube.006_Cube.007
v -0.400000 -0.256010 0.150000
v -0.400000 -0.256010 -0.150000
v 0.400000 -0.256010 0.150000
v 0.400000 -0.256010 -0.150000
v -0.400000 0.597699 0.150000
v -0.400000 0.597699 -0.150000
v 0.400000 0.597699 -0.150000
v 0.400000 0.597699 0.150000
v -0.511292 0.816781 0.150000
v -0.511292 0.816781 -0.150000
v 0.511292 0.816781 -0.150000
v 0.511292 0.816781 0.150000
v -0.395331 1.099334 0.150000
v -0.395331 1.099334 -0.150000
v 0.395331 1.099334 -0.150000
v 0.395331 1.099334 0.150000
v -0.288170 1.158315 0.150000
v -0.288170 1.158315 -0.150000
v 0.288170 1.158315 -0.150000
v 0.288170 1.158315 0.150000
v -0.194571 1.118528 -0.150000
v -0.194571 1.118528 0.150000
v 0.194571 1.118528 -0.150000
v 0.194571 1.118528 0.150000
v -0.100000 1.158315 -0.150000
v -0.100000 1.158315 0.150000
v 0.098606 1.158315 -0.150000
v 0.098606 1.158315 0.150000
v -0.445323 -0.650000 -0.241151
v -0.445323 -0.650000 0.241151
v -0.445323 -0.256010 0.241151
v -0.445323 -0.256010 -0.241151
v 0.445323 -0.650000 -0.241151
v 0.445323 -0.256010 -0.241151
v 0.445323 -0.650000 0.241151
v 0.445323 -0.256010 0.241151
v -0.367927 0.097894 -0.150000
v -0.348207 0.130976 0.150000
v -0.400000 0.185703 0.150000
v -0.400000 0.162863 -0.150000
v -0.400000 0.045769 -0.150000
v -0.400000 0.100102 0.150000
vt 0.841402 0.159736
vt 0.948722 0.162885
vt 0.981805 0.147628
vt 0.809270 0.142566
vt 0.158845 0.718173
vt 0.158845 0.825539
vt 0.142624 0.858161
vt 0.142624 0.685552
vt 0.464376 0.718173
vt 0.464377 0.825539
vt 0.552319 0.718173
vt 0.552319 0.825539
vt 0.837664 0.287130
vt 0.945554 0.270842
vt 0.060600 0.313701
vt 0.328371 0.480741
vt 0.042061 0.480735
vt 0.042064 0.333287
vt 0.387615 0.224458
vt 0.662447 0.403333
vt 0.673925 0.380081
vt 0.673925 0.224458
vt 0.002230 0.559141
vt 0.368200 0.559149
vt 0.326697 0.660269
vt 0.043728 0.660265
vt 0.741803 0.718173
vt 0.741803 0.825539
vt 0.705403 0.825539
vt 0.705403 0.718173
vt 0.979963 0.713917
vt 0.872956 0.722695
vt 0.875932 0.758972
vt 0.982939 0.750194
vt 0.661626 0.825539
vt 0.661626 0.718173
vt 0.347785 0.146052
vt 0.713755 0.146052
vt 0.672255 0.044930
vt 0.389286 0.044930
vt 0.967448 0.561346
vt 0.860441 0.570124
vt 0.869377 0.679065
vt 0.976384 0.670287
vt 0.115582 0.667135
vt 0.082082 0.681375
vt 0.778981 0.718173
vt 0.778981 0.825539
vt 0.600402 0.038060
vt 0.633901 0.023821
vt 0.960258 0.473697
vt 0.853252 0.482475
vt 0.288347 0.681376
vt 0.254851 0.667138
vt 0.878934 0.795568
vt 0.985941 0.786790
vt 0.850060 0.718173
vt 0.850060 0.825539
vt 0.220506 0.681376
vt 0.149427 0.681375
vt 0.461133 0.038060
vt 0.566556 0.023821
vt 0.495477 0.023821
vt 0.427636 0.023822
vt 0.813405 0.001624
vt 0.985941 0.006686
vt 0.690145 0.703615
vt 0.690145 0.562612
vt 0.371395 0.562612
vt 0.371395 0.703615
vt 0.001621 0.685552
vt 0.001621 0.858161
vt 0.344601 0.001584
vt 0.344598 0.142588
vt 0.025848 0.142581
vt 0.025850 0.001578
vt 0.328377 0.175209
vt 0.042067 0.175203
vt 0.673925 0.529990
vt 0.387615 0.529990
vt 0.945498 0.292746
vt 0.838433 0.308696
vt 0.841196 0.335521
vt 0.947535 0.318596
vt 0.042064 0.302652
vt 0.673925 0.421988
vn -0.3015 0.9045 0.3015
vn -0.3015 0.9045 -0.3015
vn -0.5773 0.5773 -0.5773
vn -0.5773 0.5773 0.5773
vn 0.3015 0.9045 -0.3015
vn 0.3015 0.9045 0.3015
vn 0.5773 0.5773 0.5773
vn 0.5773 0.5773 -0.5773
vn 0.6281 -0.1504 -0.7635
vn 0.6281 -0.1504 0.7635
vn 0.7806 -0.0315 -0.6242
vn 0.7806 -0.0315 0.6242
vn -0.7436 0.3424 0.5743
vn -0.6893 0.2524 -0.6791
vn -0.4266 0.0210 0.9041
vn -0.6281 -0.1504 0.7635
vn -0.7362 -0.2213 0.6395
vn -0.5004 0.0713 -0.8628
vn -0.7215 -0.2387 -0.6499
vn -0.6281 -0.1504 -0.7635
vn -0.7806 -0.0315 0.6242
vn 0.5737 0.5119 0.6393
vn -0.5737 0.5119 0.6393
vn -0.0026 0.5926 -0.8054
vn -0.0026 0.5926 0.8054
vn 0.0396 0.7830 0.6207
vn 0.0396 0.7830 -0.6207
vn -0.0396 0.7830 -0.6207
vn -0.0396 0.7830 0.6207
vn 0.0011 0.5917 0.8061
vn 0.0011 0.5917 -0.8061
vn 0.5737 0.5119 -0.6393
vn -0.7806 -0.0315 -0.6242
vn -0.5737 0.5119 -0.6393
vn 0.1457 0.7319 -0.6657
vn 0.1457 0.7319 0.6657
vn -0.1477 0.7319 0.6652
vn -0.1477 0.7319 -0.6652
vn -0.7071 0.0000 0.7071
vn -0.7071 0.0000 -0.7071
vn 0.7071 0.0000 -0.7071
vn 0.7071 0.0000 0.7071
s 1
f 1/1/1 2/2/2 32/3/3 31/4/4
f 4/5/5 3/6/6 36/7/7 34/8/8
f 3/6/6 4/5/5 7/9/9 8/10/10
f 8/10/10 7/9/9 11/11/11 12/12/12
f 2/2/2 1/1/1 42/13/13 41/14/14
f 38/15/15 8/16/10 5/17/16 39/18/17
f 7/19/9 37/20/18 40/21/19 6/22/20
f 9/23/21 12/24/12 16/25/22 13/26/23
f 23/27/24 24/28/25 20/29/26 19/30/27
f 5/17/16 8/16/10 12/24/12 9/23/21
f 18/31/28 17/32/29 22/33/30 21/34/31
f 16/35/22 15/36/32 19/30/27 20/29/26
f 11/37/11 10/38/33 14/39/34 15/40/32
f 12/12/12 11/11/11 15/36/32 16/35/22
f 10/41/33 9/42/21 13/43/23 14/44/34
f 14/44/34 13/43/23 17/32/29 18/31/28
f 13/26/23 22/45/30 17/46/29
f 24/28/25 23/27/24 27/47/35 28/48/36
f 21/49/31 14/39/34 18/50/28
f 7/19/9 6/22/20 10/38/33 11/37/11
f 6/51/20 5/52/16 9/42/21 10/41/33
f 16/25/22 20/53/26 24/54/25
f 26/55/37 25/56/38 21/34/31 22/33/30
f 28/48/36 27/47/35 25/57/38 26/58/37
f 22/45/30 24/54/25 28/59/36 26/60/37
f 13/26/23 16/25/22 24/54/25 22/45/30
f 23/61/24 21/49/31 25/62/38 27/63/35
f 19/64/27 15/40/32 23/61/24
f 15/40/32 14/39/34 21/49/31 23/61/24
f 30/65/39 31/4/4 32/3/3 29/66/40
f 29/67/40 32/68/3 34/69/8 33/70/41
f 33/71/41 34/8/8 36/7/7 35/72/42
f 35/73/42 36/74/7 31/75/4 30/76/39
f 3/77/6 1/78/1 31/75/4 36/74/7
f 2/79/2 4/80/5 34/69/8 32/68/3
f 3/77/6 8/16/10 38/15/15
f 37/81/18 38/82/15 39/83/17 40/84/19
f 40/84/19 39/83/17 5/52/16 6/51/20
f 41/14/14 42/13/13 38/82/15 37/81/18
f 1/78/1 3/77/6 38/15/15 42/85/13
f 4/80/5 2/79/2 41/86/14 37/20/18
f 7/19/9 4/80/5 37/20/18
