# Blender v2.79 (sub 0) OBJ File: 'CemeteryAssets.blend'
# www.blender.org
o Cube.001_Cube.004
v -0.400000 -0.650000 0.150000
v -0.286504 0.929531 0.150000
v -0.400000 -0.650000 -0.150000
v -0.286504 0.929531 -0.150000
v 0.400000 -0.650000 0.150000
v 0.286504 0.929531 0.150000
v 0.400000 -0.650000 -0.150000
v 0.286504 0.929531 -0.150000
v -0.220755 1.124455 0.150000
v -0.220755 1.124455 -0.150000
v 0.101420 1.108069 -0.150000
v 0.101420 1.108069 0.150000
v -0.106156 1.227902 0.150000
v -0.106156 1.227902 -0.150000
v 0.033387 1.191695 -0.150000
v 0.033387 1.191695 0.150000
v 0.065058 1.069279 -0.150000
v 0.060195 1.073970 0.150000
v 0.098640 1.012792 -0.150000
v 0.100036 1.013001 0.150000
vt 0.854127 0.004361
vt 0.854128 0.698081
vt 0.722708 0.698081
vt 0.722708 0.004361
vt 0.354813 0.004361
vt 0.305094 0.696297
vt 0.054079 0.696297
vt 0.004361 0.004361
vt 0.995639 0.004571
vt 0.994533 0.698290
vt 0.863114 0.698080
vt 0.864220 0.004361
vt 0.713986 0.004361
vt 0.664268 0.696297
vt 0.413253 0.696297
vt 0.363534 0.004361
vt 0.442055 0.781687
vt 0.565130 0.759571
vt 0.583189 0.774508
vt 0.863334 0.842912
vt 0.994729 0.840381
vt 0.995639 0.887598
vt 0.864244 0.890129
vt 0.151087 0.757516
vt 0.276292 0.781687
vt 0.135158 0.774508
vt 0.994390 0.788307
vt 0.862971 0.787576
vt 0.854128 0.788197
vt 0.722708 0.788197
vt 0.722708 0.918980
vt 0.722708 0.855827
vt 0.854128 0.855827
vt 0.854128 0.918980
vt 0.553386 0.811142
vt 0.492257 0.827003
vt 0.226090 0.827003
vt 0.164961 0.811142
vt 0.582582 0.732862
vt 0.862850 0.819481
vt 0.994281 0.817094
vt 0.136376 0.732771
vn -0.7215 0.0518 0.6904
vn -0.7190 0.1447 0.6797
vn -0.7190 0.1447 -0.6797
vn -0.7215 0.0518 -0.6904
vn 0.6501 0.4561 -0.6077
vn 0.7215 0.0518 -0.6904
vn 0.6502 0.4561 0.6076
vn 0.7215 0.0518 0.6904
vn -0.6321 0.4150 0.6544
vn 0.4582 -0.0618 0.8867
vn 0.8195 -0.0548 0.5704
vn 0.8043 -0.0538 -0.5918
vn 0.4137 0.6442 -0.6432
vn 0.4137 0.6442 0.6432
vn 0.4808 -0.0595 -0.8748
vn -0.6321 0.4150 -0.6544
vn 0.4096 0.4707 -0.7814
vn 0.4126 0.4753 0.7771
vn -0.1877 0.7664 -0.6143
vn -0.1877 0.7664 0.6143
s 1
f 1/1/1 2/2/2 4/3/3 3/4/4
f 3/5/4 4/6/3 8/7/5 7/8/6
f 7/9/6 8/10/5 6/11/7 5/12/8
f 5/13/8 6/14/7 2/15/2 1/16/1
f 9/17/9 18/18/10 12/19/11
f 12/20/11 11/21/12 15/22/13 16/23/14
f 17/24/15 10/25/16 11/26/12
f 6/11/7 8/10/5 19/27/17 20/28/18
f 4/3/3 2/2/2 9/29/9 10/30/16
f 15/31/13 14/32/19 13/33/20 16/34/14
f 10/30/16 9/29/9 13/33/20 14/32/19
f 9/17/9 12/19/11 16/35/14 13/36/20
f 11/26/12 10/25/16 14/37/19 15/38/13
f 9/17/9 20/39/18 18/18/10
f 18/40/10 17/41/15 11/21/12 12/20/11
f 19/42/17 10/25/16 17/24/15
f 2/15/2 6/14/7 20/39/18
f 20/28/18 19/27/17 17/41/15 18/40/10
f 4/6/3 10/25/16 19/42/17
f 9/17/9 2/15/2 20/39/18
f 8/7/5 4/6/3 19/42/17
