# Blender v2.79 (sub 0) OBJ File: 'CemeteryAssets.blend'
# www.blender.org
o Cube.005_Cube.006
v -0.400000 -0.650000 0.150000
v -0.400000 -0.207323 0.150000
v -0.400000 -0.650000 -0.150000
v -0.400000 -0.115560 -0.150000
v 0.400000 -0.650000 0.150000
v 0.400000 -0.207323 0.150000
v 0.400000 -0.650000 -0.150000
v 0.400000 -0.115560 -0.150000
v -0.400000 -0.650000 0.340813
v -0.400000 -0.332706 0.340813
v 0.400000 -0.332706 0.340813
v 0.400000 -0.650000 0.340813
v -0.400000 1.059158 0.150000
v -0.400000 1.059158 -0.150000
v 0.400000 1.059158 -0.150000
v 0.400000 1.059158 0.150000
v -0.495341 1.078785 0.150000
v -0.495341 1.078785 -0.150000
v 0.495341 1.078785 -0.150000
v 0.495341 1.078785 0.150000
v -0.410128 1.460756 0.150000
v -0.495341 1.397211 0.150000
v -0.495341 1.397211 -0.150000
v -0.410128 1.460756 -0.150000
v 0.410128 1.460756 -0.150000
v 0.495341 1.397211 -0.150000
v 0.495341 1.397211 0.150000
v 0.410128 1.460756 0.150000
vt 0.002042 0.798190
vt 0.145631 0.798190
vt 0.175397 0.895499
vt 0.002042 0.895499
vt 0.593756 0.686561
vt 0.593756 0.513208
vt 0.334264 0.513208
vt 0.334265 0.686562
vt 0.609006 0.721714
vt 0.626204 0.549215
vt 0.720081 0.588487
vt 0.705835 0.731368
vt 0.002042 0.736297
vt 0.104962 0.736297
vt 0.664007 0.170058
vt 0.760835 0.179712
vt 0.292215 0.001421
vt 0.292214 0.104340
vt 0.032723 0.104339
vt 0.032723 0.001420
vt 0.292214 0.178399
vt 0.032723 0.178398
vt 0.777633 0.635097
vt 0.767423 0.737509
vt 0.032722 0.589200
vt 0.292214 0.589200
vt 0.323139 0.595566
vt 0.001795 0.595566
vt 0.556434 0.798190
vt 0.556434 0.895499
vt 0.593755 0.132171
vt 0.334264 0.132171
vt 0.323139 0.698853
vt 0.001795 0.698853
vt 0.624682 0.125805
vt 0.303337 0.125805
vt 0.667138 0.138640
vt 0.763968 0.148294
vt 0.588008 0.798190
vt 0.588008 0.895499
vt 0.295500 0.719465
vt 0.029436 0.719465
vt 0.991835 0.895499
vt 0.725773 0.895499
vt 0.725773 0.798190
vt 0.991835 0.798190
vt 0.303337 0.022518
vt 0.624682 0.022518
vt 0.597041 0.001906
vt 0.330978 0.001906
vt 0.677386 0.035863
vt 0.774215 0.045518
vt 0.691294 0.895499
vt 0.691294 0.798190
vt 0.680807 0.001554
vt 0.777635 0.011209
vn -1.0000 0.0000 0.0000
vn -0.8310 0.2641 0.4895
vn -0.7071 0.0000 -0.7071
vn 0.7071 0.0000 -0.7071
vn 0.8310 0.2641 0.4895
vn 1.0000 0.0000 0.0000
vn -0.7071 0.0000 0.7071
vn -0.6142 0.3746 0.6945
vn 0.3683 -0.3002 -0.8799
vn 0.3683 -0.3002 0.8799
vn 0.7071 0.0000 0.7071
vn 0.6142 0.3746 0.6945
vn -0.3683 -0.3002 0.8799
vn 0.6265 -0.5107 0.5888
vn -0.6265 -0.5107 0.5888
vn -0.3683 -0.3002 -0.8799
vn 0.7022 0.3523 0.6187
vn -0.7022 0.3523 0.6187
vn -0.6265 -0.5107 -0.5888
vn 0.6265 -0.5107 -0.5888
vn 0.2413 0.7272 0.6426
vn -0.2413 0.7272 0.6426
vn 0.2413 0.7272 -0.6426
vn -0.2413 0.7272 -0.6426
vn 0.7022 0.3523 -0.6187
vn -0.7022 0.3523 -0.6187
s 1
f 1/1/1 2/2/2 4/3/3 3/4/3
f 3/5/3 4/6/3 8/7/4 7/8/4
f 7/9/4 8/10/4 6/11/5 5/12/6
f 2/2/2 1/1/1 9/13/7 10/14/8
f 6/11/5 8/10/4 15/15/9 16/16/10
f 12/17/11 11/18/12 10/19/8 9/20/7
f 6/21/5 2/22/2 10/19/8 11/18/12
f 5/12/6 6/11/5 11/23/12 12/24/11
f 13/25/13 16/26/10 20/27/14 17/28/15
f 4/3/3 2/2/2 13/29/13 14/30/16
f 2/22/2 6/21/5 16/26/10 13/25/13
f 8/7/4 4/6/3 14/31/16 15/32/9
f 17/28/15 20/27/14 27/33/17 22/34/18
f 15/32/9 14/31/16 18/35/19 19/36/20
f 16/16/10 15/15/9 19/37/20 20/38/14
f 14/30/16 13/29/13 17/39/15 18/40/19
f 22/34/18 27/33/17 28/41/21 21/42/22
f 25/43/23 24/44/24 21/45/22 28/46/21
f 26/47/25 23/48/26 24/49/24 25/50/23
f 20/38/14 19/37/20 26/51/25 27/52/17
f 21/45/22 24/44/24 23/53/26 22/54/18
f 25/55/23 28/56/21 27/52/17 26/51/25
f 18/40/19 17/39/15 22/54/18 23/53/26
f 19/36/20 18/35/19 23/48/26 26/47/25
