{
  "accessors": [
    {
      "bufferView": 0,
      "componentType": 5126,
      "count": 140,
      "type": "VEC3",
      "max": [
        0.14917990565299988,
        1.2914918661117554,
        0.72620564699172974
      ],
      "min": [
        -0.14816416800022125,
        -0.23017072677612305,
        -0.72429871559143066
      ]
    },
    {
      "bufferView": 1,
      "componentType": 5126,
      "count": 140,
      "type": "VEC3",
      "max": [
        0.99440586566925049,
        0.99905186891555786,
        0.994408369064331
      ],
      "min": [
        -0.95189887285232544,
        -0.92098110914230347,
        -0.9520764946937561
      ]
    },
    {
      "bufferView": 2,
      "componentType": 5126,
      "count": 140,
      "type": "VEC4",
      "max": [
        1.0,
        0.97656458616256714,
        0.76723635196685791,
        1.0
      ],
      "min": [
        -0.91232109069824219,
        -0.999920129776001,
        -0.9991796612739563,
        -1.0
      ]
    },
    {
      "bufferView": 3,
      "componentType": 5126,
      "count": 140,
      "type": "VEC2",
      "max": [
        0.98680704832077026,
        0.97792750597000122
      ],
      "min": [
        0.0094395913183689117,
        0.0091192461550235748
      ]
    },
    {
      "bufferView": 4,
      "componentType": 5125,
      "count": 354,
      "type": "SCALAR",
      "max": [
        139.0
      ],
      "min": [
        0.0
      ]
    }
  ],
  "asset": {
    "generator": "UnityGLTF (2017.4.0f1)",
    "version": "2.0"
  },
  "buffers": [
    {
      "uri": "Unity2Skfb.bin",
      "byteLength": 8136
    }
  ],
  "bufferViews": [
    {
      "buffer": 0,
      "byteLength": 1680
    },
    {
      "buffer": 0,
      "byteOffset": 1680,
      "byteLength": 1680
    },
    {
      "buffer": 0,
      "byteOffset": 3360,
      "byteLength": 2240
    },
    {
      "buffer": 0,
      "byteOffset": 5600,
      "byteLength": 1120
    },
    {
      "buffer": 0,
      "byteOffset": 6720,
      "byteLength": 1416
    }
  ],
  "images": [
    {
      "uri": "98146_PickAxe_Normal.jpg",
      "name": "PickAxe_Normal"
    }
  ],
  "materials": [
    {
      "normalTexture": {
        "index": 0
      },
      "name": "Pick Axe"
    }
  ],
  "meshes": [
    {
      "primitives": [
        {
          "attributes": {
            "POSITION": 0,
            "NORMAL": 1,
            "TANGENT": 2,
            "TEXCOORD_0": 3
          },
          "indices": 4,
          "material": 0
        }
      ],
      "name": "Pick_Axe"
    }
  ],
  "nodes": [
    {
      "mesh": 0,
      "rotation": [
        0.0,
        0.0,
        0.0,
        -1.0
      ],
      "name": "Pick_Axe"
    }
  ],
  "samplers": [
    {
      "minFilter": 9729
    }
  ],
  "scene": 0,
  "scenes": [
    {
      "nodes": [
        0
      ],
      "name": "Unity2Skfb"
    }
  ],
  "textures": [
    {
      "sampler": 0,
      "source": 0,
      "name": "PickAxe_Normal"
    }
  ]
}