# ProBuilder 4.0.5
# https://unity3d.com/unity/features/worldbuilding/probuilder
# 14.05.2019 14:22:37

mtllib ./Plane_(1).mtl
o Plane (1)

g Plane (1)
v -54.7 100.3 57.9
v -54.6354 100.3 57.74637
v -54.54637 100.3 57.96461
v -54.48176 100.3 57.81097
v -54.57079 100.3 57.59273
v -54.41715 100.3 57.65734
v -54.50618 100.3 57.4391
v -54.35254 100.3 57.5037
v -54.44157 100.3 57.28546
v -54.28794 100.3 57.35007
v -54.37696 100.3 57.13183
v -54.22333 100.3 57.19643
v -54.31236 100.3 56.97819
v -54.15872 100.3 57.0428
v -54.39273 100.3 58.02922
v -54.32813 100.3 57.87558
v -54.26352 100.3 57.72195
v -54.19891 100.3 57.56831
v -54.1343 100.3 57.41468
v -54.06969 100.3 57.26104
v -54.00509 100.3 57.10741
v -54.2391 100.3 58.09382
v -54.17449 100.3 57.94019
v -54.10988 100.3 57.78655
v -54.04527 100.3 57.63292
v -42.42972 100.3 30.01136
v -42.36511 100.3 29.85773
v -53.85145 100.3 57.17201
v -54.08546 100.3 58.15843
v -54.02085 100.3 58.0048
v -53.95625 100.3 57.85116
v -53.89164 100.3 57.69753
v -42.27608 100.3 30.07596
v -42.21148 100.3 29.92234
v -53.69782 100.3 57.23662
v -34.23573 100.3 74.42403
v -34.17112 100.3 74.27039
v -53.80261 100.3 57.91577
v -53.738 100.3 57.76213
v -53.6734 100.3 57.6085
v -53.60879 100.3 57.45486
v -53.54418 100.3 57.30123
v -34.08208 100.3 74.48863
v -34.01748 100.3 74.335
v -53.64898 100.3 57.98038
v -53.58437 100.3 57.82674
v -53.51976 100.3 57.67311
v -53.45515 100.3 57.51947
v -53.39055 100.3 57.36584

vt 0 0
vt 0 0.1666667
vt 0.1666667 0
vt 0.1666667 0.1666667
vt 0 0.3333333
vt 0.1666667 0.3333333
vt 0 0.5
vt 0.1666667 0.5
vt 0 0.6666667
vt 0.1666667 0.6666667
vt 0 0.8333334
vt 0.1666667 0.8333334
vt 0 1
vt 0.1666667 1
vt 0.3333333 0
vt 0.3333333 0.1666667
vt 0.3333333 0.3333333
vt 0.3333333 0.5
vt 0.3333333 0.6666667
vt 0.3333333 0.8333334
vt 0.3333333 1
vt 0.5 0
vt 0.5 0.1666667
vt 0.5 0.3333333
vt 0.5 0.5
vt 0.5 30.46451
vt 0.5 30.63116
vt 0.5 1
vt 0.6666667 0
vt 0.6666667 0.1666667
vt 0.6666667 0.3333333
vt 0.6666667 0.5
vt 0.6666679 30.46451
vt 0.6666679 30.63116
vt -0.5 30.63116
vt -0.5 1
vt -0.6666679 30.63116
vt -0.6666667 1
vt 25.26959 -7.299145
vt 25.26959 -7.132477
vt 0.8333334 0.3333333
vt 0.8333334 0.5
vt 0.8333334 0.6666667
vt 0.8333334 0.8333334
vt -0.8333334 0.8333334
vt -0.8333334 1
vt 25.43626 -7.299145
vt 25.43626 -7.132477
vt 1 0.3333333
vt 1 0.5
vt 1 0.6666667
vt 1 0.8333334
vt 0.8333334 1
vt 1 1

vn 0 1 0
vn 0 0 0
vn 0 -1 0

g Plane (1)
usemtl ProBuilderDefault
f 3/3/1 4/4/1 2/2/1 1/1/1
f 4/4/1 6/6/1 5/5/1 2/2/1
f 6/6/1 8/8/1 7/7/1 5/5/1
f 8/8/1 10/10/1 9/9/1 7/7/1
f 10/10/1 12/12/1 11/11/1 9/9/1
f 12/12/1 14/14/1 13/13/1 11/11/1
f 15/15/1 16/16/1 4/4/1 3/3/1
f 16/16/1 17/17/1 6/6/1 4/4/1
f 17/17/1 18/18/1 8/8/1 6/6/1
f 18/18/1 19/19/1 10/10/1 8/8/1
f 19/19/1 20/20/1 12/12/1 10/10/1
f 20/20/1 21/21/1 14/14/1 12/12/1
f 22/22/1 23/23/1 16/16/1 15/15/1
f 23/23/1 24/24/1 17/17/1 16/16/1
f 24/24/1 25/25/1 18/18/1 17/17/1
f 25/25/1 26/26/1 19/19/1 18/18/1
f 26/26/1 27/27/1 20/20/1 19/19/1
f 27/27/2 28/28/3 21/21/2 20/20/1
f 29/29/1 30/30/1 23/23/1 22/22/1
f 30/30/1 31/31/1 24/24/1 23/23/1
f 31/31/1 32/32/1 25/25/1 24/24/1
f 32/32/1 33/33/1 26/26/1 25/25/1
f 33/33/1 34/34/1 27/27/1 26/26/1
f 34/37/3 35/38/3 28/36/3 27/35/3
f 36/39/1 37/40/1 30/30/1 29/29/1
f 37/40/1 38/41/1 31/31/1 30/30/1
f 38/41/1 39/42/1 32/32/1 31/31/1
f 39/42/1 40/43/1 33/33/1 32/32/1
f 40/43/1 41/44/1 34/34/1 33/33/1
f 41/45/2 42/46/1 35/38/2 34/37/3
f 43/47/1 44/48/1 37/40/1 36/39/1
f 44/48/1 45/49/1 38/41/1 37/40/1
f 45/49/1 46/50/1 39/42/1 38/41/1
f 46/50/1 47/51/1 40/43/1 39/42/1
f 47/51/1 48/52/1 41/44/1 40/43/1
f 48/52/1 49/54/1 42/53/1 41/44/1

